<?xml version="1.0" encoding="UTF-8"?> <svg xmlns="http://www.w3.org/2000/svg" xmlns:xlink="http://www.w3.org/1999/xlink" id="Camada_1" data-name="Camada 1" viewBox="0 0 200 134.34"><defs><style>.cls-1{fill:none;clip-rule:evenodd}.cls-2{clip-path:url(#clip-path)}.cls-3{fill:url(#Gradiente_sem_nome)}.cls-4{clip-path:url(#clip-path-2)}.cls-5{fill:url(#Gradiente_sem_nome_2)}.cls-6{clip-path:url(#clip-path-3)}.cls-7{fill:url(#Gradiente_sem_nome_3)}.cls-8{clip-path:url(#clip-path-4)}.cls-9{fill:url(#Gradiente_sem_nome_4)}.cls-10{clip-path:url(#clip-path-5)}.cls-11{fill:url(#Gradiente_sem_nome_5)}.cls-12{clip-path:url(#clip-path-6)}.cls-13{fill:url(#Gradiente_sem_nome_6)}.cls-14{clip-path:url(#clip-path-7)}.cls-15{fill:url(#Gradiente_sem_nome_7)}.cls-16{clip-path:url(#clip-path-8)}.cls-17{fill:url(#Gradiente_sem_nome_8)}.cls-18{clip-path:url(#clip-path-9)}.cls-19{fill:url(#Gradiente_sem_nome_9)}.cls-20{clip-path:url(#clip-path-10)}.cls-21{fill:url(#Gradiente_sem_nome_10)}.cls-22{clip-path:url(#clip-path-11)}.cls-23{fill:url(#Gradiente_sem_nome_11)}.cls-24{clip-path:url(#clip-path-12)}.cls-25{fill:url(#Gradiente_sem_nome_12)}.cls-26{clip-path:url(#clip-path-13)}.cls-27{fill:url(#Gradiente_sem_nome_13)}.cls-28{clip-path:url(#clip-path-14)}.cls-29{fill:url(#Gradiente_sem_nome_14)}.cls-30{clip-path:url(#clip-path-15)}.cls-31{fill:url(#Gradiente_sem_nome_15)}.cls-32{clip-path:url(#clip-path-16)}.cls-33{fill:url(#Gradiente_sem_nome_16)}.cls-34{clip-path:url(#clip-path-17)}.cls-35{fill:url(#Gradiente_sem_nome_17)}.cls-36{clip-path:url(#clip-path-18)}.cls-37{fill:url(#Gradiente_sem_nome_18)}.cls-38{clip-path:url(#clip-path-19)}.cls-39{fill:url(#Gradiente_sem_nome_19)}.cls-40{clip-path:url(#clip-path-20)}.cls-41{fill:url(#Gradiente_sem_nome_20)}.cls-42{fill:#fff}.cls-43{clip-path:url(#clip-path-21)}.cls-44{fill:url(#Gradiente_sem_nome_21)}</style><clipPath id="clip-path"><path class="cls-1" d="M101.6 48.17l-1.38-3.91c-1.55-4.41-3.75-10.4-11.08-7.3l.08.32c3.24-1.17 5.24 0 6.59 1.93l-7.75 18.61a3 3 0 0 1-2.66 1.8h-.28v.32h6.3v-.31h-.28a1.34 1.34 0 0 1-1.19-2l6.66-17.11a27.14 27.14 0 0 1 1.31 3.29l1.46 4.33zm.9-9.19h6.39a1.87 1.87 0 0 1 1.75 1.87v.55h.36v-3.94a13.27 13.27 0 0 1-3.73.56H98c.24.31.46.63.67 1zm4.33 10.62h1a1.54 1.54 0 0 1 1.48 1.54v.46h.3v-5h-.3v.47a1.55 1.55 0 0 1-1.52 1.54H95l-.36.94h12.16zm6 5.28h-.31c-1 2.39-2.24 4.1-5.56 4.1h-.52c.16.32.34.64.51 1H111zm2.13 11c-5.69 1.22-9.19-5.83-10.95-10.84l-1.76-5H100c.45 1.31.75 2.2 1.89 5.57C105.1 65 110.09 68 115 66.23z"></path></clipPath><linearGradient id="Gradiente_sem_nome" x1="85.12" y1="50.95" x2="115.02" y2="50.95" gradientUnits="userSpaceOnUse"><stop offset="0" stop-color="#ede2cc"></stop><stop offset=".2" stop-color="#ba9c7b"></stop><stop offset=".35" stop-color="#e3caa6"></stop><stop offset=".5" stop-color="#fdfbef"></stop><stop offset=".53" stop-color="#e3caa6"></stop><stop offset=".65" stop-color="#e7d0af"></stop><stop offset=".84" stop-color="#b39677"></stop><stop offset="1" stop-color="#e7dac2"></stop></linearGradient><clipPath id="clip-path-2"><path class="cls-1" d="M100.51 20.28a27.86 27.86 0 0 0-11.27 2.1v1.74s4.1-2.18 11.23-2.18 11.24 2.18 11.24 2.18v-1.74a27.91 27.91 0 0 0-11.27-2.1"></path></clipPath><linearGradient id="Gradiente_sem_nome_2" x1="89.24" y1="22.2" x2="111.78" y2="22.2" xlink:href="#Gradiente_sem_nome"></linearGradient><clipPath id="clip-path-3"><path class="cls-1" d="M77.21 37.16V55.7A20.9 20.9 0 0 0 89 74.45L100.51 80 112 74.45a20.9 20.9 0 0 0 11.8-18.75V37.16c-4.35-.09-7.26-1.14-8.63-3.12a5.86 5.86 0 0 1-.45-5.34 24.93 24.93 0 0 0-28.46 0 5.84 5.84 0 0 1-.42 5.3c-1.38 2-4.28 3-8.63 3.12m23.3 44.27l-12.07-5.75A22.22 22.22 0 0 1 75.88 55.7V35.84h.66c4.2 0 7-.88 8.21-2.56.79-1.13.83-2.67.12-4.59l-.16-.44.37-.3A26.15 26.15 0 0 1 116 28l.37.3-.17.44c-.7 1.92-.66 3.46.12 4.59 1.17 1.68 4 2.56 8.21 2.56h.66V55.7a22.21 22.21 0 0 1-12.55 19.94z"></path></clipPath><linearGradient id="Gradiente_sem_nome_3" x1="75.88" y1="52.17" x2="125.14" y2="52.17" xlink:href="#Gradiente_sem_nome"></linearGradient><clipPath id="clip-path-4"><path class="cls-1" d="M80.71 38.15l-.3-.22-.22.29.3.21zm.92-.18l-.3-.19-.21.29.3.21zm.91-.22l-.32-.18-.18.31.31.18zm.89-.3l-.33-.14-.16.31.33.16zm.86-.36L84 37l-.13.34.34.12zm.82-.46l-.36-.09-.09.35.34.11zm.75-.56h-.36v.36h.36zm.66-.66h-.35v.36h.36zm.56-.75l-.35.07v.36l.37-.07zm.42-.84l-.33.14.11.34.35-.13zm.28-.89l-.31.19.18.31.31-.18zm.13-.93l-.28.24.22.28.29-.23zm0-.93l-.25.27.26.25.25-.27zm-.13-.93l-.2.29.28.22.22-.29zm.81-1.14l-.35-.08-.09.34.35.09zm.79-.44l-.34-.1-.1.34.34.11zm.82-.41l-.34-.15-.12.34.34.11zm.83-.38l-.34-.13-.13.34.34.13zm.84-.35l-.33-.14-.14.34.33.13zm.85-.31l-.33-.16-.14.33.32.15zm.87-.29l-.32-.17-.16.32.31.16zm.87-.25l-.31-.18-.18.31.32.17zm.89-.23l-.35-.21-.19.31.31.18zm.89-.19l-.3-.19-.2.3.3.19zm.89-.15l-.29-.21-.21.3.29.2zm.91-.11l-.28-.22-.22.28.28.22zm.91-.08l-.28-.23-.23.27.27.23zm.9-.05l-.26-.24-.24.26.26.24zm.92 0l-.26-.25-.25.25.25.25zm.91 0l-.25-.26-.26.24.24.26zm.91.06l-.24-.26-.27.23.23.27zm.9.11l-.22-.28-.28.22.22.28zm.9.13l-.21-.29-.29.21.21.29zm.9.17l-.2-.3-.3.2.2.3zm.88.21l-.18-.31-.31.19.19.3zm.88.24l-.17-.32-.31.18.17.31zm.87.27l-.16-.32-.32.16.17.32zm.86.3l-.15-.33-.32.16.15.32zm.85.34l-.14-.34-.33.15.14.32zm.83.36l-.12-.33-.34.12.13.34zm.82.4l-.11-.34-.34.11.12.34zm.81.43l-.1-.35-.35.11.11.34zm.78.46l-.08-.35-.35.09.09.34zm.29 1.41l.29-.22-.21-.3-.29.22zm-.06.93l.26-.25-.24-.27-.27.25zm.07.94l.22-.29-.27-.23-.23.28zm.21.91l.17-.32-.31-.18-.18.31zm.36.86l.11-.34-.33-.13-.13.35zm.5.79l.05-.35-.35-.07-.06.36zm.62.71v-.36h-.36v.37zm.72.6l-.06-.36h-.36v.36zm.78.5l-.09-.35-.35.08.08.38zm.85.41l-.13-.34-.35.13.13.33zm.88.32l-.17-.31-.32.14.16.33zm.9.26l-.19-.31-.32.18.19.31zm.91.19l-.2-.29-.31.19.21.3zm.93.15l-.22-.29-.3.22.23.28zm.93.1l-.23-.28-.28.23.23.28zm.66 1.2l.25-.25-.25-.26-.26.26zm0 .92l.25-.26-.25-.25-.26.25zm0 .91l.25-.25-.25-.26-.26.26zm0 .92l.25-.26-.25-.25-.26.25zm0 .91l.25-.25-.25-.26-.26.26zm0 .92l.25-.25-.25-.26-.26.26zm0 .92l.25-.26-.25-.25-.26.25zm0 .91l.25-.25-.25-.26-.26.26zm0 .92l.25-.26-.25-.25-.26.25zm0 .92l.25-.26-.25-.25-.26.25zm0 .91l.25-.25-.25-.26-.26.26zm0 .92l.25-.26-.25-.25-.26.25zm0 .91l.25-.25-.25-.26-.26.26zm0 .92l.25-.26-.25-.25-.26.25zm0 .92l.25-.26-.25-.25-.26.25zm0 .91l.25-.25-.25-.26-.26.26zm0 .92l.25-.26-.25-.25-.26.25zm0 .91l.25-.25-.25-.26-.26.26zm0 .92l.27-.25-.25-.26-.26.25zm0 .91l.26-.24-.24-.26-.26.24zm-.09.91l.28-.22-.23-.28-.28.23zm-.13.91l.3-.21-.22-.29-.28.21zm-.16.9l.29-.2-.2-.3-.29.2zm-.22.89l.31-.18-.23-.35-.31.18zm-.25.88l.32-.17-.17-.31-.32.17zm-.29.87l.32-.16-.16-.32-.32.16zm-.34.85l.33-.14-.14-.33-.33.14zm-.38.84l.34-.13-.12-.33-.34.12zm-.41.82l.34-.11-.11-.35-.34.11zm-.45.79l.34-.09-.09-.35-.35.09zm-.49.77l.35-.07-.07-.35-.35.08zm-.52.76l.35-.06-.06-.36-.35.06zm-.56.72h.35v-.36h-.36zm-.6.7h.37v-.36h-.36zm-.61.68h.36v-.37h-.35zm-.66.63h.36v-.36h-.36zm-.69.61h.36v-.35h-.37zm-.7.59h.36v-.36h-.35zm-.74.53l.35.06.06-.35-.36-.06zm-.77.51l.36.07.08-.34-.36-.08zm-.78.48l.35.08.09-.35-.35-.08zm-.81.42l.34.11.11-.35-.34-.1zm-.82.41l.34.12.12-.34-.34-.12zm-.82.39l.33.12.12-.34-.34-.11zm-.83.4l.34.12.12-.34-.34-.12zm-.83.4l.34.12.12-.34-.34-.12zm-.82.39l.34.12.12-.34-.34-.12zm-.83.4l.34.12.12-.34-.34-.12zm-.83.39l.34.12.12-.34-.34-.11zm-.82.4l.34.12.12-.34-.34-.12zm-.83.39l.34.12.12-.33-.34-.12zm-.82.4l.34.12.11-.34-.33-.12zm-.83.4l.34.12.12-.34-.34-.12zm-.83.39l.34.12.12-.34-.34-.11zm-.82.4l.34.12.12-.34-.34-.12zm-1.41-.22l.12.34.33-.12-.12-.34zm-.83-.4l.12.34.34-.12-.12-.33zm-.83-.39l.13.34.33-.12-.17-.35zm-.82-.4l.12.34.34-.12-.12-.34zm-.83-.39l.12.33.34-.12-.12-.33zm-.82-.4l.12.34.34-.12-.12-.34zm-.83-.4l.12.34.34-.12-.13-.33zm-.82-.39l.11.34.34-.12-.17-.37zm-.83-.4l.12.34.34-.12-.12-.34zm-.83-.39l.12.34.34-.12-.12-.34zm-.82-.4l.12.34.34-.12-.12-.34zm-.83-.4l.12.34.34-.12-.12-.33zm-.83-.39l.13.34.33-.12-.17-.34zm-.81-.43l.11.35.29-.09-.1-.34zm-.79-.45l.08.35.35-.08-.09-.35zm-.78-.48l.08.34.35-.07-.08-.35zm-.75-.53l.06.35.36-.06-.06-.35zm-.72-.57v.36h.35v-.36zm-.7-.58v.35h.36v-.35zm-.66-.64v.36h.35v-.36zm-.64-.66v.37h.36v-.36zm-.61-.68v.36h.36v-.35zm-.57-.72v.36h.36v-.35zm-.53-.74l-.07.36.35.06.06-.36zm-.52-.76l-.07.35.36.07.07-.34zm-.46-.79l-.09.35.35.09.09-.35zm-.43-.81l-.11.35.34.11.11-.35zm-.4-.82l-.12.33.34.13.12-.34zm-.34-.85l-.14.33.33.14.14-.33zm-.31-.86l-.16.32.32.16L80 62zm-.28-.87l-.17.31.32.17.16-.31zm-.28-.93l-.18.31.3.18.19-.31zm-.19-.9l-.2.3.29.2.21-.3zm-.15-.9l-.21.29.29.21.2-.29zm-.1-.91l-.22.28.28.22.22-.27zm0-.91l-.25.26.27.24.24-.26zm0-.92l-.25.26.26.25.25-.26zm0-.92l-.26.26.26.25.25-.25zm0-.91l-.26.25.26.26.25-.26zm0-.92l-.26.26.26.25.25-.25zm0-.91l-.26.25.26.26.25-.26zm0-.92l-.26.25.26.26.25-.26zm0-.92l-.26.26.26.25.25-.25zm0-.91l-.26.25.26.26.25-.26zm0-.92l-.26.26.26.25.25-.25zm0-.91l-.26.25.26.26.25-.26zm0-.92l-.26.25.26.26.25-.26zm0-.92l-.26.26.26.25.25-.25zm0-.91l-.26.25.26.26.25-.26zm0-.92l-.26.26.26.25.25-.25zm0-.92l-.26.26.26.25.25-.25zm0-.91l-.26.25.26.26.25-.26zm0-.92l-.26.26.26.25.25-.25zm0-.91l-.26.25.26.26.25-.26zm0-.92l-.26.26.26.25.25-.25zm8.76-9.57l.14-.09.15-.09.28.42h-.25l-.25.06zm26.29 0l-.09.34-.24-.05h-.25l.27-.42.15.1zm9 8.69v.47h-.51v-.5zm-22.23 40.56l-.1-.05h-.11l.11-.22.1-.22.11.22.11.22h-.1zM78.35 38.13h.48v.5h-.51v-.47zm1.43.14L79.5 38l-.24.28.28.23z"></path></clipPath><linearGradient id="Gradiente_sem_nome_4" x1="78.35" y1="52.06" x2="122.67" y2="52.06" xlink:href="#Gradiente_sem_nome"></linearGradient><clipPath id="clip-path-5"><path class="cls-1" d="M90.48 71.41l10 4.81 10-4.81a17.58 17.58 0 0 0 9.93-15.78v-15.5c-3.73-.51-6.4-1.88-7.94-4.09a7.81 7.81 0 0 1-1.31-5.53 21.53 21.53 0 0 0-21.43 0A7.78 7.78 0 0 1 88.49 36c-1.54 2.21-4.22 3.58-7.95 4.09v15.5a17.57 17.57 0 0 0 9.94 15.78m10 5.55L90.19 72a18.26 18.26 0 0 1-10.31-16.37V39.54h.29c3.69-.44 6.31-1.74 7.77-3.84a7.17 7.17 0 0 0 1.17-5.27v-.22l.2-.12a22.22 22.22 0 0 1 22.47 0l.19.11v.22a7.24 7.24 0 0 0 1.17 5.28c1.47 2.1 4.09 3.4 7.77 3.84h.29v16.09A18.24 18.24 0 0 1 110.83 72z"></path></clipPath><linearGradient id="Gradiente_sem_nome_5" x1="79.88" y1="51.98" x2="121.14" y2="51.98" xlink:href="#Gradiente_sem_nome"></linearGradient><clipPath id="clip-path-6"><path class="cls-1" d="M114.44 25.3c3.43.43 4.38 1.92 3.39 5.06-.66 2.09 1.66 3.29 3.84 3.49s4.65-.4 6.81 0 4.45 1.36 5.3 3.38a4.11 4.11 0 0 1-3.59 5.7 1.92 1.92 0 0 1-1.24-.3.91.91 0 0 1-.27-1.16c.23-.36.91-.34 1 .08a2 2 0 0 0 1.18-3.06 2.4 2.4 0 0 0-3.51 0 3.06 3.06 0 0 0 0 3.7 4.24 4.24 0 0 0 3.5 1.61 7.26 7.26 0 0 0 3.74-1.27 9.24 9.24 0 0 0 3.87-5 6.86 6.86 0 0 0-1-6.1 8.15 8.15 0 0 0-6.46-2.8 24.1 24.1 0 0 0-7.1 1.38c-1.22.37-2.46.93-3.15.45-1.56-1.11.17-3.43-1.65-4.87-2-1.61-4.69-1.05-4.69-.29"></path></clipPath><linearGradient id="Gradiente_sem_nome_6" x1="114.44" y1="33.89" x2="138.75" y2="33.89" xlink:href="#Gradiente_sem_nome"></linearGradient><clipPath id="clip-path-7"><path class="cls-1" d="M123.19 70.16c5-4.78 9.46-27.28 20-27.28 5.7 0 7.67 3.79 7.67 6.65 0 4.87-3 8.28-6.65 8.28-3.17 0-4.78-1.85-4.78-4.29s1.32-4.81 4-4.81a2.66 2.66 0 0 1 2.83 2.69c-2 1.7.31 3.58 1.51 1.93 2.37-3.26 1.06-8.53-4-8.53-3.44 0-7 4.16-6.66 8.27.19 2.54 1.1 6.11-2.12 9.8-2.48 2.84-11.84 7.29-11.84 7.29"></path></clipPath><linearGradient id="Gradiente_sem_nome_7" x1="123.19" y1="56.52" x2="150.87" y2="56.52" xlink:href="#Gradiente_sem_nome"></linearGradient><clipPath id="clip-path-8"><path class="cls-1" d="M126.6 61c2.15-4.55 4.32-14.74 10.06-16.94a13.91 13.91 0 0 0-7 2.45s-1.73-2.44-2.74-2c1.45 6.57-.34 16.47-.34 16.47"></path></clipPath><linearGradient id="Gradiente_sem_nome_8" x1="126.6" y1="52.52" x2="136.66" y2="52.52" xlink:href="#Gradiente_sem_nome"></linearGradient><clipPath id="clip-path-9"><path class="cls-1" d="M137.81 62.21c2 1.1 10.5-1.54 14.23 2.4 0 0-.36-2.48-3.73-3.94 0 0 3.48-4.3 8.29-4.3 1.51 0 2.13.77 2.13 1.66 0 2.11-3.1 3.23-2.74.76 0-1.2-2.77-1-2.77 1 0 1.5 1.26 2.13 2.92 2.13a3.8 3.8 0 0 0 3.73-3.75 3 3 0 0 0-3.32-3c-5.13 0-10.72 5.43-18.74 7.07"></path></clipPath><linearGradient id="Gradiente_sem_nome_9" x1="137.81" y1="59.88" x2="159.87" y2="59.88" xlink:href="#Gradiente_sem_nome"></linearGradient><clipPath id="clip-path-10"><path class="cls-1" d="M142.87 64c-13.06 0-23.87 15.21-40.29 18.81 21.43 2.13 17.7.63 29.05-11.27a15.92 15.92 0 0 1 3-2.46 5.2 5.2 0 0 0 .8 3c.15.23.45.43.7.32l.24-.23c.65-1.34 3.28-6 8.8-6 4.52 0 7.94 3.16 7.94 7.34 0 4.92-2.45 7.21-4.17 7.21a2.32 2.32 0 0 1-2.28-2.36c0-2.2 2.65-3.14 2.65-3.14 0-1.23-2.71-3.62-5.24-3.62s-5.9 1.44-5.9 5.39c0 5.42 4.94 7.28 8.72 7.28 5.54 0 8.35-4.5 8.35-10S150.85 64 142.87 64"></path></clipPath><linearGradient id="Gradiente_sem_nome_10" x1="102.58" y1="74.49" x2="155.25" y2="74.49" xlink:href="#Gradiente_sem_nome"></linearGradient><clipPath id="clip-path-11"><path class="cls-1" d="M154.41 66.06c0 3.43 12.32 13.66 23.7 13.66 9.37 0 11.23-5.47 11.23-9.78 0-3.28-2.68-7.18-6.4-7.18s-6.55 2.1-6.55 5.72c0 2.88 2.22 4.61 5.19 4.61 4.75 0-1.18-6.64 3.81-6.64 1.5 0 2.56 1.9 2.56 4.33 0 4.19-3.15 7.89-9.92 7.89-7.61 0-15.22-5.3-16.82-6.17 0 0 10.84 4.38 10.84-1.61 0-4.83-7.49-1.86-10.6-1.86a9 9 0 0 1-7-3"></path></clipPath><linearGradient id="Gradiente_sem_nome_11" x1="154.41" y1="71.24" x2="189.34" y2="71.24" xlink:href="#Gradiente_sem_nome"></linearGradient><clipPath id="clip-path-12"><path class="cls-1" d="M156.94 72.3c3.57 4.08 7 6.63 9.52 6.91a23 23 0 0 1-5.25.37c1.76 1.06.85 3.08.92 4.36-1.33-.8-3.14-.1-3.09-3.3a7.17 7.17 0 0 1-3.91 2.62s3.28-3.54 1.81-11"></path></clipPath><linearGradient id="Gradiente_sem_nome_12" x1="155.13" y1="78.12" x2="166.46" y2="78.12" xlink:href="#Gradiente_sem_nome"></linearGradient><clipPath id="clip-path-13"><path class="cls-1" d="M86.58 25.3c-3.43.43-4.37 1.92-3.38 5.06.65 2.09-1.67 3.29-3.85 3.49s-4.64-.4-6.8 0-4.45 1.36-5.3 3.38a4.11 4.11 0 0 0 3.58 5.7 1.89 1.89 0 0 0 1.24-.3.91.91 0 0 0 .28-1.16.61.61 0 0 0-1 .08 2 2 0 0 1-1.18-3.06 2.4 2.4 0 0 1 3.51 0 3 3 0 0 1 0 3.7 4.24 4.24 0 0 1-3.49 1.61 7.23 7.23 0 0 1-3.74-1.27 9.26 9.26 0 0 1-3.88-5 6.89 6.89 0 0 1 1-6.1 8.17 8.17 0 0 1 6.43-2.8A24.16 24.16 0 0 1 77.1 30c1.22.37 2.46.93 3.14.45 1.56-1.11-.17-3.43 1.65-4.87 2-1.61 4.69-1.05 4.69-.29"></path></clipPath><linearGradient id="Gradiente_sem_nome_13" x1="62.27" y1="33.89" x2="86.58" y2="33.89" xlink:href="#Gradiente_sem_nome"></linearGradient><clipPath id="clip-path-14"><path class="cls-1" d="M77.84 70.16c-5-4.78-9.47-27.28-20-27.28-5.7 0-7.67 3.79-7.67 6.65 0 4.87 3 8.28 6.65 8.28 3.18 0 4.79-1.85 4.79-4.29s-1.32-4.81-4-4.81a2.66 2.66 0 0 0-2.83 2.69c2 1.7-.31 3.58-1.5 1.93-2.37-3.26-1.06-8.53 4-8.53 3.43 0 7 4.16 6.65 8.27-.19 2.54-1.09 6.11 2.13 9.8 2.47 2.84 11.84 7.29 11.84 7.29"></path></clipPath><linearGradient id="Gradiente_sem_nome_14" x1="50.15" y1="56.52" x2="77.84" y2="56.52" xlink:href="#Gradiente_sem_nome"></linearGradient><clipPath id="clip-path-15"><path class="cls-1" d="M74.43 61c-2.15-4.55-4.32-14.74-10.07-16.94a13.91 13.91 0 0 1 7 2.45s1.74-2.44 2.74-2c-1.45 6.57.35 16.47.35 16.47"></path></clipPath><linearGradient id="Gradiente_sem_nome_15" x1="64.36" y1="52.52" x2="74.43" y2="52.52" xlink:href="#Gradiente_sem_nome"></linearGradient><clipPath id="clip-path-16"><path class="cls-1" d="M63.22 62.21c-2 1.1-10.5-1.54-14.23 2.4 0 0 .36-2.48 3.73-3.94 0 0-3.49-4.3-8.3-4.3-1.5 0-2.13.77-2.13 1.66 0 2.11 3.1 3.23 2.74.76 0-1.2 2.77-1 2.77 1 0 1.5-1.25 2.13-2.92 2.13a3.8 3.8 0 0 1-3.73-3.75 3 3 0 0 1 3.32-3c5.14 0 10.72 5.43 18.75 7.07"></path></clipPath><linearGradient id="Gradiente_sem_nome_16" x1="41.15" y1="59.88" x2="63.22" y2="59.88" xlink:href="#Gradiente_sem_nome"></linearGradient><clipPath id="clip-path-17"><path class="cls-1" d="M58.15 64C71.21 64 82 79.21 98.44 82.81c-16.37 4.75-20.32-2.13-29-11.27a16.58 16.58 0 0 0-3-2.46 5.36 5.36 0 0 1-.8 3c-.16.23-.46.43-.71.32l-.24-.23c-.64-1.34-3.27-6-8.79-6-4.52 0-7.94 3.16-7.94 7.34 0 4.92 2.45 7.21 4.16 7.21a2.32 2.32 0 0 0 2.28-2.36c0-2.2-2.65-3.14-2.65-3.14 0-1.23 2.71-3.62 5.25-3.62s5.84 1.4 5.84 5.4c0 5.42-4.94 7.28-8.72 7.28-5.54 0-8.35-4.5-8.35-10S50.18 64 58.15 64"></path></clipPath><linearGradient id="Gradiente_sem_nome_17" x1="45.77" y1="75.8" x2="98.44" y2="75.8" xlink:href="#Gradiente_sem_nome"></linearGradient><clipPath id="clip-path-18"><path class="cls-1" d="M46.61 66.06c0 3.43-12.32 13.66-23.69 13.66-9.38 0-11.24-5.66-11.24-9.42 0-3.27 2.68-7.54 6.4-7.54s6.55 2.1 6.55 5.72c0 2.88-2.22 4.61-5.18 4.61-4.76 0 1.17-6.64-3.82-6.64-1.49 0-2.55 1.9-2.55 4.33 0 3.87 3.14 7.89 9.91 7.89 7.62 0 15.22-5.3 16.82-6.17 0 0-10.83 4.38-10.83-1.61C29 66.06 36.47 69 39.58 69a9 9 0 0 0 7-3"></path></clipPath><linearGradient id="Gradiente_sem_nome_18" x1="11.68" y1="71.24" x2="46.61" y2="71.24" xlink:href="#Gradiente_sem_nome"></linearGradient><clipPath id="clip-path-19"><path class="cls-1" d="M44.09 72.3c-3.58 4.08-7 6.63-9.53 6.91a23 23 0 0 0 5.25.37c-1.75 1.06-.85 3.08-.92 4.36 1.34-.8 3.15-.1 3.1-3.3a7.12 7.12 0 0 0 3.9 2.62s-3.28-3.54-1.8-11"></path></clipPath><linearGradient id="Gradiente_sem_nome_19" x1="34.56" y1="78.12" x2="45.89" y2="78.12" xlink:href="#Gradiente_sem_nome"></linearGradient><clipPath id="clip-path-20"><path class="cls-1" d="M100.51 19.11a29.59 29.59 0 0 1 11.34 2 83.53 83.53 0 0 1 3.47-17.55c-1.25 2.18-3.71 6.13-7.25 7.81a2 2 0 1 1 .16 4c-1.77 0-1.93-1.84-2.29-1.84a2 2 0 0 1-2 1.84 2 2 0 1 1 .12-4C101.24 8.6 100.51 0 100.51 0S99.79 8.6 97 11.42a2 2 0 1 1 .11 4 1.94 1.94 0 0 1-2-1.84c-.37 0-.53 1.84-2.3 1.84a2 2 0 1 1 .16-4c-3.53-1.68-6-5.63-7.25-7.81a82.81 82.81 0 0 1 3.47 17.55 29.64 29.64 0 0 1 11.34-2"></path></clipPath><linearGradient id="Gradiente_sem_nome_20" x1="85.7" y1="10.56" x2="115.32" y2="10.56" xlink:href="#Gradiente_sem_nome"></linearGradient><clipPath id="clip-path-21"><path class="cls-1" d="M100 122.58L0 121.45l100-1.12 100 1.12-100 1.13z"></path></clipPath><linearGradient id="Gradiente_sem_nome_21" y1="121.46" x2="200" y2="121.46" xlink:href="#Gradiente_sem_nome"></linearGradient></defs><title>logo</title><path class="cls-2 cls-3" d="M85.12 33.86h29.9v34.18h-29.9z"></path><path class="cls-4 cls-5" d="M89.24 20.28h22.54v3.84H89.24z"></path><path class="cls-6 cls-7" d="M75.88 22.91h49.27v58.52H75.88z"></path><path class="cls-8 cls-9" d="M78.35 25.48h44.31v53.17H78.35z"></path><path class="cls-10 cls-11" d="M79.88 27h41.27v49.96H79.88z"></path><path class="cls-12 cls-13" d="M114.44 23.98h24.62V43.8h-24.62z"></path><path class="cls-14 cls-15" d="M123.19 42.88h27.68v27.28h-27.68z"></path><path class="cls-16 cls-17" d="M126.6 44.05h10.06v16.94H126.6z"></path><path class="cls-18 cls-19" d="M137.81 55.14h22.07v9.47h-22.07z"></path><path class="cls-20 cls-21" d="M102.58 64.03h52.67v20.91h-52.67z"></path><path class="cls-22 cls-23" d="M154.41 62.76h34.93v16.96h-34.93z"></path><path class="cls-24 cls-25" d="M155.13 72.3h11.33v11.64h-11.33z"></path><path class="cls-26 cls-27" d="M61.96 23.98h24.62V43.8H61.96z"></path><path class="cls-28 cls-29" d="M50.15 42.88h27.68v27.28H50.15z"></path><path class="cls-30 cls-31" d="M64.36 44.05h10.06v16.94H64.36z"></path><path class="cls-32 cls-33" d="M41.15 55.14h22.07v9.47H41.15z"></path><path class="cls-34 cls-35" d="M45.77 64.03h52.67v23.53H45.77z"></path><path class="cls-36 cls-37" d="M11.68 62.76h34.93v16.96H11.68z"></path><path class="cls-38 cls-39" d="M34.56 72.3h11.33v11.64H34.56z"></path><path class="cls-40 cls-41" d="M85.7 0h29.62v21.13H85.7z"></path><path class="cls-42" d="M185.82 112.28v-.6h2V97.15h-2v-.6h6.41v.6h-2v14.53h2v.6zm-8.58-15.42a3.27 3.27 0 0 0-3.19 1.85c-.62 1.24-.93 3.48-.93 6.74a9.58 9.58 0 0 0 1 5 3.73 3.73 0 0 0 6.18 0 9.76 9.76 0 0 0 1-5c0-3.27-.31-5.52-.92-6.73a3.26 3.26 0 0 0-3.14-1.86zm0 15.8a6.25 6.25 0 0 1-2.78-.59 6.45 6.45 0 0 1-2.19-1.87 8.49 8.49 0 0 1-1.37-2.66 10.53 10.53 0 0 1-.48-3.19 9.72 9.72 0 0 1 .46-3 7.77 7.77 0 0 1 1.39-2.52 7.33 7.33 0 0 1 2.29-1.94 5.88 5.88 0 0 1 2.68-.63 5.77 5.77 0 0 1 2.57.57 6.61 6.61 0 0 1 2.14 1.7 8.28 8.28 0 0 1 1.55 2.71 9.48 9.48 0 0 1 .54 3.23 10 10 0 0 1-.51 3.19 8.45 8.45 0 0 1-1.45 2.68 5.77 5.77 0 0 1-4.84 2.32zm-20.24-.38v-.6h2V97.15h-2v-.6h6.43v.6h-2.13v14.53h3.23a3.72 3.72 0 0 0 2.64-.81 6.19 6.19 0 0 0 1.39-3h.44l-.27 4.43zm-14.18 0v-.6h1.78V97.15h-1.78v-.6h11.69v3.78H154a3.82 3.82 0 0 0-1.12-2.49 4.75 4.75 0 0 0-2.94-.69h-2.95v6.66h.48a3.36 3.36 0 0 0 2.18-.56 2.79 2.79 0 0 0 .76-1.93h.51v5.91h-.52a3 3 0 0 0-.81-2.2 3.78 3.78 0 0 0-2.47-.63h-.13v7.28h3.34a4.17 4.17 0 0 0 2.86-.83 5.67 5.67 0 0 0 1.36-3h.45l-.25 4.48zm-13.61-1.35a11 11 0 0 1-2.35 1.32 6.07 6.07 0 0 1-2.15.41 4.93 4.93 0 0 1-3.55-1.3 4.41 4.41 0 0 1-1.38-3.35 4.77 4.77 0 0 1 1.24-3.22 7.14 7.14 0 0 1 3.37-2.09l-.69-1.16a4.74 4.74 0 0 1-.46-1.07 3.61 3.61 0 0 1-.16-1 2.86 2.86 0 0 1 1-2.28 4.43 4.43 0 0 1 5.19-.1 2.48 2.48 0 0 1 1 2 2.61 2.61 0 0 1-.91 1.93 7.18 7.18 0 0 1-2.69 1.44l3.84 6.22a7.11 7.11 0 0 0 1.48-2.38 10 10 0 0 0 .6-3.1h-2.09v-.55h4.62v.55h-2a11.51 11.51 0 0 1-.7 3.42 7.55 7.55 0 0 1-1.67 2.59l1.55 2.49h1.94v.6H130zm-4.55-7.68a4.65 4.65 0 0 0-2.11 1.18 2.64 2.64 0 0 0-.69 1.86 5.58 5.58 0 0 0 .34 1.83 7.46 7.46 0 0 0 .93 1.85 4.27 4.27 0 0 0 1.26 1.28 2.83 2.83 0 0 0 1.49.41 3.72 3.72 0 0 0 1.44-.32 6.87 6.87 0 0 0 1.59-1zm1.72-1.24a3.31 3.31 0 0 0 1.69-1.14 3.42 3.42 0 0 0 .52-2 2.07 2.07 0 0 0-.52-1.5 2 2 0 0 0-1.47-.53 1.86 1.86 0 0 0-1.33.5 1.6 1.6 0 0 0-.51 1.21 2.6 2.6 0 0 0 .1.72 2.76 2.76 0 0 0 .3.68zm-21.48-5.15a3.28 3.28 0 0 0-3.19 1.85c-.62 1.24-.92 3.48-.92 6.74a9.7 9.7 0 0 0 1 5 3.73 3.73 0 0 0 6.18 0 9.76 9.76 0 0 0 1-5c0-3.27-.31-5.52-.92-6.73a3.26 3.26 0 0 0-3.15-1.86zm0 15.8a6.25 6.25 0 0 1-2.78-.59 6.45 6.45 0 0 1-2.19-1.87 8.49 8.49 0 0 1-1.37-2.66 10.53 10.53 0 0 1-.48-3.19 9.72 9.72 0 0 1 .46-3 7.77 7.77 0 0 1 1.39-2.52 7.44 7.44 0 0 1 2.29-1.94 5.88 5.88 0 0 1 2.68-.63 5.77 5.77 0 0 1 2.57.57 6.61 6.61 0 0 1 2.14 1.7 8.28 8.28 0 0 1 1.55 2.71 9.48 9.48 0 0 1 .54 3.23 10 10 0 0 1-.5 3.19 8.47 8.47 0 0 1-1.46 2.68 5.77 5.77 0 0 1-4.84 2.32zm-20.85-1V97.15h-1.77v-.6H88a8 8 0 0 1 5.82 2 7.57 7.57 0 0 1 2.05 5.69 9.62 9.62 0 0 1-.75 3.9 7.43 7.43 0 0 1-2.19 2.86 5.75 5.75 0 0 1-2 1 10.1 10.1 0 0 1-2.69.31h-6v-.6zm2.39-14.53v14.53h1.71a7.8 7.8 0 0 0 2.1-.25 4.12 4.12 0 0 0 1.48-.75 3.89 3.89 0 0 0 1.19-1.92 18.55 18.55 0 0 0 .35-4.41 18.88 18.88 0 0 0-.3-4 4.13 4.13 0 0 0-1-1.94 3.81 3.81 0 0 0-1.6-.93 8.58 8.58 0 0 0-2.43-.29zM67.8 112.28v-.6h1.77V97.15H67.8v-.6h11.68v3.78H79a3.83 3.83 0 0 0-1.13-2.49 4.73 4.73 0 0 0-2.94-.69H72v6.66h.48a3.34 3.34 0 0 0 2.18-.56 2.79 2.79 0 0 0 .76-1.93h.51v5.91h-.52a3 3 0 0 0-.81-2.2 3.78 3.78 0 0 0-2.47-.63H72v7.28h3.3a4.17 4.17 0 0 0 2.86-.83 5.75 5.75 0 0 0 1.37-3h.52l-.24 4.48zm-8.55.38L54 97.15h-1.72v-.6h6v.6h-1.83l3.92 11.59 3.86-11.59h-2.16v-.6h4.5v.6h-1.65l-5.14 15.51zm-20.69-.38v-.6h1.77V97.15h-1.77v-.6h11.69v3.78h-.51a3.82 3.82 0 0 0-1.12-2.49 4.77 4.77 0 0 0-2.94-.69h-3v6.66h.48a3.36 3.36 0 0 0 2.18-.56 2.79 2.79 0 0 0 .76-1.93h.5v5.91h-.51a3 3 0 0 0-.81-2.2 3.78 3.78 0 0 0-2.47-.63h-.13v7.28h3.34a4.15 4.15 0 0 0 2.85-.83 5.6 5.6 0 0 0 1.37-3h.53l-.25 4.48zm-13.76 0v-.84L34 97.15h-4.72a2.65 2.65 0 0 0-2 .73 4.92 4.92 0 0 0-1.07 2.45h-.65l.27-3.78h10.75v.75l-9.24 14.38h4.23a4.58 4.58 0 0 0 3.09-.85 5.08 5.08 0 0 0 1.3-3h.62l-.28 4.5zm-15 0v-.6h1.87L17 96.14h.59l5 15.54h1.65v.6h-6v-.6h1.94l-1.58-5.05h-4.52l-1.67 5.05h2v.6zm4.54-6.34h4.11l-2-6.32zM167.4 132.45a1.7 1.7 0 0 1-.63 1.31 2.7 2.7 0 0 1-.77.41 3.35 3.35 0 0 1-1.06.15 5.41 5.41 0 0 1-1.2-.12 7.28 7.28 0 0 1-1.08-.37v-1h.06a3.34 3.34 0 0 0 1.08.6 3.45 3.45 0 0 0 1.14.21 2.14 2.14 0 0 0 1.19-.29.86.86 0 0 0 .42-.75.83.83 0 0 0-.2-.61 1.34 1.34 0 0 0-.61-.3 6.13 6.13 0 0 0-.67-.13l-.77-.14a2.3 2.3 0 0 1-1.21-.6 1.48 1.48 0 0 1-.4-1.09 1.52 1.52 0 0 1 .66-1.27 2.66 2.66 0 0 1 1.66-.49 5.51 5.51 0 0 1 1.19.12 6.38 6.38 0 0 1 1 .31v1h-.06a2.75 2.75 0 0 0-.92-.49 3.64 3.64 0 0 0-1.17-.2 1.85 1.85 0 0 0-1.06.27.81.81 0 0 0-.4.7.9.9 0 0 0 .2.61 1.38 1.38 0 0 0 .7.33c.17 0 .42.09.75.14s.6.11.83.17a2.19 2.19 0 0 1 1 .55 1.46 1.46 0 0 1 .34 1m-7.57-1.32a2.83 2.83 0 0 0-.54-1.85 2 2 0 0 0-2.93 0 2.83 2.83 0 0 0-.54 1.85 2.74 2.74 0 0 0 .55 1.85 2 2 0 0 0 2.92 0 2.8 2.8 0 0 0 .53-1.88zm.08-2.37a2.69 2.69 0 0 1 .57 1 4.72 4.72 0 0 1 0 2.72 3 3 0 0 1-.57 1 2.54 2.54 0 0 1-.9.63 3.16 3.16 0 0 1-1.19.21 3.22 3.22 0 0 1-1.18-.22 2.46 2.46 0 0 1-.9-.62 2.77 2.77 0 0 1-.57-1 4.06 4.06 0 0 1-.2-1.36 4.36 4.36 0 0 1 .19-1.35 3 3 0 0 1 .58-1 2.34 2.34 0 0 1 .91-.62 3.27 3.27 0 0 1 2.36 0 2.46 2.46 0 0 1 .89.58zm-7.72 2.36a2.61 2.61 0 0 0-.25-1.21 1.88 1.88 0 0 0-.75-.78 2.72 2.72 0 0 0-.78-.29 5.46 5.46 0 0 0-1-.08h-.76v4.74h.76a5.3 5.3 0 0 0 1-.09 2.24 2.24 0 0 0 .8-.32 1.83 1.83 0 0 0 .69-.77 2.82 2.82 0 0 0 .28-1.23zm.86 0a3.11 3.11 0 0 1-.37 1.52 2.77 2.77 0 0 1-1 1.06 3 3 0 0 1-.94.37 6.37 6.37 0 0 1-1.37.12h-1.56v-6.16h1.54a6.2 6.2 0 0 1 1.44.13 3.18 3.18 0 0 1 .89.36 2.82 2.82 0 0 1 1 1 3.32 3.32 0 0 1 .36 1.59zm-8.83.65l-1.07-3-1.08 3zm1.74 2.42h-.88l-.6-1.71h-2.67l-.6 1.71h-.83l2.24-6.16h1.1zm-7.2 0h-2.43v-.63h.8v-4.9h-.8v-.63h2.43v.63H138v4.9h.81zm-4.28-.45l-.41.19a3.73 3.73 0 0 1-.49.18 3.89 3.89 0 0 1-.54.13 3.34 3.34 0 0 1-.65.06 3.59 3.59 0 0 1-1.22-.19 2.38 2.38 0 0 1-1-.59 2.7 2.7 0 0 1-.62-1 4 4 0 0 1-.22-1.4 4.09 4.09 0 0 1 .21-1.36 2.91 2.91 0 0 1 .62-1 2.63 2.63 0 0 1 1-.61 3.55 3.55 0 0 1 1.24-.21 4.19 4.19 0 0 1 1 .12 5.29 5.29 0 0 1 1.1.42v1h-.06a3.83 3.83 0 0 0-1-.62 2.94 2.94 0 0 0-1.07-.19 2.24 2.24 0 0 0-.84.15 1.82 1.82 0 0 0-.67.47 2.19 2.19 0 0 0-.45.78 3.58 3.58 0 0 0-.16 1.09 3.07 3.07 0 0 0 .18 1.11 2.32 2.32 0 0 0 .45.76 1.92 1.92 0 0 0 .68.45 2.25 2.25 0 0 0 .82.15 3.07 3.07 0 0 0 1.1-.2 3.23 3.23 0 0 0 1-.61h.06zm-7.87-2.63a2.89 2.89 0 0 0-.53-1.85 2 2 0 0 0-2.94 0 2.83 2.83 0 0 0-.53 1.85 2.8 2.8 0 0 0 .54 1.85 2 2 0 0 0 2.92 0 2.8 2.8 0 0 0 .53-1.86zm.08-2.37a2.71 2.71 0 0 1 .58 1 4.72 4.72 0 0 1 0 2.72 2.85 2.85 0 0 1-.58 1 2.37 2.37 0 0 1-.9.63 3.1 3.1 0 0 1-1.18.21 3.18 3.18 0 0 1-1.18-.22 2.42 2.42 0 0 1-.91-.62 3.09 3.09 0 0 1-.57-1 4.69 4.69 0 0 1 0-2.71 2.69 2.69 0 0 1 .58-1 2.31 2.31 0 0 1 .9-.62 3.3 3.3 0 0 1 2.37 0 2.34 2.34 0 0 1 .88.6zm-6.86 3.69a1.65 1.65 0 0 1-.17.71 1.54 1.54 0 0 1-.47.6 2.57 2.57 0 0 1-.77.41 3.26 3.26 0 0 1-1.06.15 5.38 5.38 0 0 1-1.19-.12 6.57 6.57 0 0 1-1.08-.37v-1a3.34 3.34 0 0 0 1.08.6 3.55 3.55 0 0 0 1.15.21 2.1 2.1 0 0 0 1.18-.29.86.86 0 0 0 .42-.75.79.79 0 0 0-.2-.61 1.3 1.3 0 0 0-.6-.3 6.32 6.32 0 0 0-.68-.13l-.76-.14a2.33 2.33 0 0 1-1.22-.6 1.52 1.52 0 0 1-.39-1.09 1.53 1.53 0 0 1 .65-1.27 2.68 2.68 0 0 1 1.66-.49 5.45 5.45 0 0 1 1.19.12 5.71 5.71 0 0 1 1 .31v1a2.91 2.91 0 0 0-.93-.49 3.6 3.6 0 0 0-1.17-.2 1.87 1.87 0 0 0-1.06.27.83.83 0 0 0-.39.7.89.89 0 0 0 .19.61 1.47 1.47 0 0 0 .7.33l.75.14c.33.06.6.11.83.17a2.14 2.14 0 0 1 1 .55 1.46 1.46 0 0 1 .33.96zm-6.65 0a1.65 1.65 0 0 1-.17.71 1.54 1.54 0 0 1-.47.6 2.57 2.57 0 0 1-.77.41 3.26 3.26 0 0 1-1.06.15 5.38 5.38 0 0 1-1.19-.12 6.57 6.57 0 0 1-1.08-.37v-1a3.34 3.34 0 0 0 1.08.6 3.55 3.55 0 0 0 1.15.21 2.08 2.08 0 0 0 1.18-.29.87.87 0 0 0 .43-.75.79.79 0 0 0-.21-.61 1.3 1.3 0 0 0-.6-.3 5.88 5.88 0 0 0-.68-.13l-.76-.14a2.33 2.33 0 0 1-1.22-.6 1.52 1.52 0 0 1-.39-1.09 1.53 1.53 0 0 1 .65-1.27 2.68 2.68 0 0 1 1.66-.49 5.61 5.61 0 0 1 1.2.12 6.38 6.38 0 0 1 1 .31v1h-.06a2.8 2.8 0 0 0-.93-.49 3.6 3.6 0 0 0-1.17-.2 1.82 1.82 0 0 0-1 .27.81.81 0 0 0-.4.7.89.89 0 0 0 .19.61 1.47 1.47 0 0 0 .7.33l.75.14c.33.06.61.11.83.17a2.14 2.14 0 0 1 1 .55 1.42 1.42 0 0 1 .33.96zm-8-.66l-1.08-3-1.08 3zm1.73 2.42H106l-.6-1.71h-2.67l-.6 1.71h-.83l2.24-6.16h1.09zm-10.11-1.76a1.51 1.51 0 0 1-.17.71 1.61 1.61 0 0 1-.46.6 2.63 2.63 0 0 1-.78.41 3.24 3.24 0 0 1-1 .15 5.41 5.41 0 0 1-1.2-.12 6.57 6.57 0 0 1-1.08-.37v-1h.06a3.29 3.29 0 0 0 1.07.6 3.55 3.55 0 0 0 1.15.21 2.08 2.08 0 0 0 1.18-.29.85.85 0 0 0 .43-.75.83.83 0 0 0-.2-.61 1.39 1.39 0 0 0-.61-.3 6.13 6.13 0 0 0-.67-.13l-.77-.14a2.26 2.26 0 0 1-1.21-.6 1.48 1.48 0 0 1-.4-1.09 1.52 1.52 0 0 1 .66-1.27 2.63 2.63 0 0 1 1.65-.49 5.54 5.54 0 0 1 1.2.12 6.38 6.38 0 0 1 1 .31v1h-.06a2.85 2.85 0 0 0-.92-.49 3.7 3.7 0 0 0-1.18-.2 1.82 1.82 0 0 0-1 .27.81.81 0 0 0-.4.7.85.85 0 0 0 .2.61 1.38 1.38 0 0 0 .69.33c.18 0 .43.09.76.14s.6.11.82.17a2.23 2.23 0 0 1 1 .55 1.46 1.46 0 0 1 .19.96zm-7.57-1.32a2.83 2.83 0 0 0-.54-1.85 2 2 0 0 0-2.94 0 2.89 2.89 0 0 0-.53 1.85 2.8 2.8 0 0 0 .54 1.85 1.83 1.83 0 0 0 1.47.65 1.79 1.79 0 0 0 1.45-.65 2.74 2.74 0 0 0 .5-1.86zm.08-2.37a2.69 2.69 0 0 1 .57 1 4.1 4.1 0 0 1 .2 1.36 4.37 4.37 0 0 1-.2 1.36 3 3 0 0 1-.57 1 2.54 2.54 0 0 1-.9.63 3.37 3.37 0 0 1-2.37 0 2.38 2.38 0 0 1-.9-.62 2.94 2.94 0 0 1-.58-1 4.69 4.69 0 0 1 0-2.71 2.83 2.83 0 0 1 .58-1 2.38 2.38 0 0 1 .9-.62 3.06 3.06 0 0 1 1.18-.22 3 3 0 0 1 1.19.22 2.46 2.46 0 0 1 .85.59zm-7.72 2.36a2.61 2.61 0 0 0-.25-1.21 1.84 1.84 0 0 0-.76-.78 2.66 2.66 0 0 0-.77-.29 5.46 5.46 0 0 0-1-.08H78v4.74h.77a5.12 5.12 0 0 0 1-.09 2.22 2.22 0 0 0 .81-.32 1.83 1.83 0 0 0 .69-.77 2.82 2.82 0 0 0 .28-1.21zm.85 0a3.22 3.22 0 0 1-.36 1.52 2.79 2.79 0 0 1-1 1.06 2.89 2.89 0 0 1-.94.37 6.21 6.21 0 0 1-1.36.12H77.2v-6.16h1.54a6 6 0 0 1 1.43.13 3.13 3.13 0 0 1 .9.36 2.72 2.72 0 0 1 1 1 3.21 3.21 0 0 1 .33 1.61zm-8.82.65l-1.07-3-1.08 3zm1.74 2.42h-.88l-.6-1.71h-2.72l-.6 1.71h-.83l2.26-6.15h1.09zm-7.24-.45a6.9 6.9 0 0 1-1.11.4 3.93 3.93 0 0 1-1.15.18 4.25 4.25 0 0 1-1.32-.2 2.6 2.6 0 0 1-1-.6 2.57 2.57 0 0 1-.66-1 3.79 3.79 0 0 1-.23-1.41 3.16 3.16 0 0 1 .86-2.34 3.23 3.23 0 0 1 2.37-.85 4.55 4.55 0 0 1 1.08.13 5.63 5.63 0 0 1 1.18.42v1H68l-.37-.25a2.9 2.9 0 0 0-.48-.27 4.52 4.52 0 0 0-.65-.21 4 4 0 0 0-.82-.08 2.12 2.12 0 0 0-1.64.66 3 3 0 0 0 0 3.65 2.26 2.26 0 0 0 1.71.67 4.15 4.15 0 0 0 .79-.08 3.56 3.56 0 0 0 .69-.2v-1.5h-1.62v-.73h2.47zm-8.25-2.63a2.89 2.89 0 0 0-.53-1.85 2 2 0 0 0-2.94 0 2.83 2.83 0 0 0-.54 1.85 2.8 2.8 0 0 0 .55 1.85 2 2 0 0 0 2.92 0 2.8 2.8 0 0 0 .49-1.84zm.08-2.37a2.85 2.85 0 0 1 .58 1 4.37 4.37 0 0 1 .2 1.36 4.09 4.09 0 0 1-.21 1.36 2.69 2.69 0 0 1-.57 1 2.37 2.37 0 0 1-.9.63 3.14 3.14 0 0 1-1.18.21 3.23 3.23 0 0 1-1.19-.22 2.46 2.46 0 0 1-.9-.62 2.77 2.77 0 0 1-.57-1 4.69 4.69 0 0 1 0-2.71 2.69 2.69 0 0 1 .58-1 2.31 2.31 0 0 1 .9-.62 3 3 0 0 1 1.18-.22 3 3 0 0 1 1.18.22 2.31 2.31 0 0 1 .85.62zm-6.47-.71l-2.24 6.16H50.1l-2.24-6.16h.88l1.93 5.41 1.93-5.41zm-8 3.07a2.61 2.61 0 0 0-.25-1.21 1.88 1.88 0 0 0-.75-.78 2.66 2.66 0 0 0-.77-.29 5.54 5.54 0 0 0-1-.08h-.77v4.74h.77a5.19 5.19 0 0 0 1-.09 2.37 2.37 0 0 0 .81-.32 1.87 1.87 0 0 0 .68-.77 2.68 2.68 0 0 0 .24-1.19zm.86 0a3.11 3.11 0 0 1-.37 1.52 2.77 2.77 0 0 1-1 1.06 3 3 0 0 1-.94.37 6.31 6.31 0 0 1-1.37.12h-1.56v-6.16h1.53a6.14 6.14 0 0 1 1.44.13 3.38 3.38 0 0 1 .9.36 2.8 2.8 0 0 1 1 1 3.32 3.32 0 0 1 .33 1.63zm-8.82.65l-1.08-3-1.08 3zm1.73 2.42h-.87l-.61-1.71h-2.7l-.61 1.71h-.83l2.25-6.16H37z"></path><path class="cls-43 cls-44" d="M0 120.33h200v2.24H0z"></path></svg> 